<svg width="30" height="27" viewBox="0 0 30 27" fill="none" xmlns="http://www.w3.org/2000/svg">
<path d="M29.7081 12.2931C29.6153 12.2001 29.505 12.1263 29.3836 12.076C29.2622 12.0257 29.1321 11.9998 29.0006 11.9998C28.8692 11.9998 28.7391 12.0257 28.6177 12.076C28.4963 12.1263 28.386 12.2001 28.2931 12.2931L22.0006 18.5868L11.4144 8.00056L17.7081 1.70806C17.8011 1.61515 17.8748 1.50485 17.925 1.38345C17.9753 1.26206 18.0012 1.13195 18.0012 1.00056C18.0012 0.869161 17.9753 0.739053 17.925 0.61766C17.8748 0.496267 17.8011 0.385966 17.7081 0.293056C17.6152 0.200146 17.5049 0.126445 17.3835 0.0761628C17.2621 0.0258802 17.132 -2.76894e-09 17.0006 0C16.8693 2.76894e-09 16.7391 0.0258802 16.6178 0.0761628C16.4964 0.126445 16.3861 0.200146 16.2931 0.293056L10.0006 6.58681C9.69807 6.88944 9.50054 7.28115 9.43709 7.70437C9.37364 8.12759 9.44762 8.56 9.64815 8.93806L7.00065 11.5868C6.62586 11.9618 6.41532 12.4704 6.41532 13.0006C6.41532 13.5308 6.62586 14.0393 7.00065 14.4143L7.5869 15.0006L0.293146 22.2931C0.172511 22.4136 0.0847106 22.563 0.03809 22.7271C-0.00853048 22.8911 -0.0124221 23.0643 0.0267854 23.2303C0.065993 23.3963 0.146997 23.5495 0.262097 23.6753C0.377197 23.8012 0.522569 23.8955 0.684396 23.9493L9.6844 26.9493C9.78632 26.9835 9.89314 27.0008 10.0006 27.0006C10.132 27.0007 10.2621 26.9749 10.3835 26.9247C10.5049 26.8745 10.6152 26.8009 10.7081 26.7081L15.0006 22.4143L15.5869 23.0006C15.9619 23.3753 16.4704 23.5859 17.0006 23.5859C17.5309 23.5859 18.0394 23.3753 18.4144 23.0006L21.0619 20.3531C21.4401 20.5539 21.8728 20.628 22.2962 20.5646C22.7197 20.5011 23.1117 20.3034 23.4144 20.0006L29.7081 13.7081C29.8011 13.6152 29.8749 13.5049 29.9252 13.3835C29.9755 13.2621 30.0014 13.132 30.0014 13.0006C30.0014 12.8691 29.9755 12.739 29.9252 12.6176C29.8749 12.4962 29.8011 12.3859 29.7081 12.2931ZM17.0006 21.5868L8.4144 13.0006L11.0006 10.4143L19.5869 19.0006L17.0006 21.5868Z" fill="#F1E238"/>
</svg>
