<svg width="712" height="90" viewBox="0 0 712 90" fill="none" xmlns="http://www.w3.org/2000/svg">
<rect width="712" height="90" rx="20" fill="#FEE500"/>
<g clip-path="url(#clip0_124_935)">
<path fill-rule="evenodd" clip-rule="evenodd" d="M201 28.2C191.058 28.2 183 34.4259 183 42.1045C183 46.88 186.117 51.0899 190.863 53.5939L188.866 60.8889C188.69 61.5335 189.427 62.0473 189.993 61.6738L198.747 55.8964C199.485 55.9676 200.236 56.0093 201 56.0093C210.941 56.0093 219 49.7836 219 42.1045C219 34.4259 210.941 28.2 201 28.2Z" fill="black"/>
</g>
<path d="M250.584 34.672C250.562 37.2533 250.349 39.5573 249.944 41.584C249.56 43.5893 248.898 45.52 247.96 47.376C247.021 49.2107 245.741 50.8853 244.12 52.4C242.498 53.8933 240.504 55.2587 238.136 56.496C237.88 56.1333 237.485 55.5787 236.952 54.832C236.44 54.0853 236.045 53.5307 235.768 53.168C240.034 51.2907 242.989 48.5173 244.632 44.848C242.605 45.0827 239.917 45.3813 236.568 45.744L235.992 42.16C241.389 41.776 244.621 41.5627 245.688 41.52C245.922 40.2613 246.05 39.152 246.072 38.192H237.368V34.672H250.584ZM258.328 32.016V42.672H262.232V46.16H258.328V60.528H254.136V32.016H258.328ZM278.271 34.672C278.25 37.2533 278.037 39.5573 277.631 41.584C277.247 43.5893 276.586 45.52 275.647 47.376C274.709 49.2107 273.429 50.8853 271.807 52.4C270.186 53.8933 268.191 55.2587 265.823 56.496C265.567 56.1333 265.173 55.5787 264.639 54.832C264.127 54.0853 263.733 53.5307 263.455 53.168C267.722 51.2907 270.677 48.5173 272.319 44.848C270.293 45.0827 267.605 45.3813 264.255 45.744L263.679 42.16C269.077 41.776 272.309 41.5627 273.375 41.52C273.61 40.2613 273.738 39.152 273.759 38.192H265.055V34.672H278.271ZM286.015 32.016V42.672H289.919V46.16H286.015V60.528H281.823V32.016H286.015ZM317.095 57.04H291.335V53.68H302.055V49.296C299.473 48.976 297.415 48.112 295.879 46.704C294.364 45.2747 293.607 43.5253 293.607 41.456C293.607 39.1093 294.577 37.2 296.519 35.728C298.46 34.256 301.02 33.52 304.199 33.52C307.399 33.52 309.969 34.256 311.911 35.728C313.852 37.2 314.823 39.1093 314.823 41.456C314.823 43.5467 314.055 45.3067 312.519 46.736C310.983 48.144 308.913 48.9973 306.311 49.296V53.68H317.095V57.04ZM308.743 44.848C309.916 43.9947 310.503 42.8747 310.503 41.488C310.503 40.1013 309.927 38.992 308.775 38.16C307.644 37.328 306.119 36.912 304.199 36.912C302.279 36.912 300.743 37.328 299.591 38.16C298.46 38.992 297.895 40.1013 297.895 41.488C297.895 42.8747 298.471 43.9947 299.623 44.848C300.775 45.7013 302.3 46.128 304.199 46.128C306.076 46.128 307.591 45.7013 308.743 44.848ZM349.829 32.016V42.768H353.797V46.224H349.829V60.528H345.605V32.016H349.829ZM327.525 44.144C327.525 41.0933 328.197 38.6187 329.541 36.72C330.906 34.8 332.741 33.84 335.045 33.84C337.349 33.84 339.173 34.8 340.517 36.72C341.882 38.6187 342.565 41.0933 342.565 44.144C342.565 47.1307 341.882 49.584 340.517 51.504C339.173 53.4027 337.349 54.352 335.045 54.352C332.741 54.352 330.906 53.4027 329.541 51.504C328.197 49.6053 327.525 47.152 327.525 44.144ZM338.565 44.144C338.565 42.032 338.245 40.4107 337.605 39.28C336.965 38.1493 336.111 37.584 335.045 37.584C334.021 37.584 333.189 38.1493 332.549 39.28C331.93 40.4107 331.621 42.032 331.621 44.144C331.621 46.2133 331.941 47.824 332.581 48.976C333.221 50.1067 334.042 50.672 335.045 50.672C336.111 50.672 336.965 50.1067 337.605 48.976C338.245 47.8453 338.565 46.2347 338.565 44.144ZM378.796 60.528H374.572V32.016H378.796V60.528ZM355.884 44.144C355.884 41.0933 356.545 38.6187 357.868 36.72C359.212 34.8 361.036 33.84 363.34 33.84C365.665 33.84 367.5 34.8 368.844 36.72C370.188 38.6187 370.86 41.0933 370.86 44.144C370.86 47.152 370.188 49.6053 368.844 51.504C367.5 53.4027 365.665 54.352 363.34 54.352C361.057 54.352 359.244 53.4027 357.9 51.504C356.556 49.6053 355.884 47.152 355.884 44.144ZM366.892 44.144C366.892 42.032 366.561 40.4107 365.9 39.28C365.26 38.1493 364.407 37.584 363.34 37.584C362.337 37.584 361.516 38.16 360.876 39.312C360.236 40.4427 359.916 42.0533 359.916 44.144C359.916 46.2133 360.236 47.824 360.876 48.976C361.516 50.1067 362.337 50.672 363.34 50.672C364.407 50.672 365.26 50.1067 365.9 48.976C366.561 47.8453 366.892 46.2347 366.892 44.144ZM406.164 60.528H401.94V32.016H406.164V60.528ZM388.692 50.288C389.076 50.3093 389.662 50.32 390.452 50.32C394.718 50.32 397.929 50.0533 400.084 49.52C400.148 50.0533 400.297 51.2053 400.532 52.976C397.844 53.5947 394.014 53.904 389.044 53.904C388.51 53.904 387.732 53.8933 386.708 53.872C385.705 53.8507 384.948 53.84 384.436 53.84V34.576H397.428V37.904H388.692V50.288ZM433.787 49.52H425.467V53.68H436.251V57.008H410.491V53.68H421.275V49.52H413.723V39.792H428.827V37.04H413.691V33.648H433.051V43.184H417.947V46.16H433.787V49.52ZM469.881 49.52H461.561V53.68H472.345V57.008H446.585V53.68H457.369V49.52H449.817V39.792H464.921V37.04H449.785V33.648H469.145V43.184H454.041V46.16H469.881V49.52ZM500.032 56.56H474.272V53.232H500.032V56.56ZM496.64 34.768C496.726 41.424 496.352 47.1413 495.52 51.92L491.456 51.504C491.734 49.8613 491.979 47.6747 492.192 44.944C492.427 42.2133 492.512 39.952 492.448 38.16H476.96V34.768H496.64ZM525.64 52.688H521.352V32.016H525.64V52.688ZM526.216 59.824H506.216V50.576H510.472V56.528H526.216V59.824ZM502.696 41.296C502.696 39.2267 503.442 37.5413 504.936 36.24C506.45 34.9173 508.328 34.256 510.568 34.256C512.808 34.256 514.685 34.9173 516.2 36.24C517.714 37.5413 518.472 39.2267 518.472 41.296C518.472 43.344 517.714 45.0293 516.2 46.352C514.685 47.6533 512.808 48.304 510.568 48.304C508.328 48.304 506.45 47.6533 504.936 46.352C503.442 45.0293 502.696 43.344 502.696 41.296ZM506.824 41.296C506.824 42.3413 507.176 43.184 507.88 43.824C508.584 44.4427 509.48 44.752 510.568 44.752C511.656 44.752 512.552 44.4427 513.256 43.824C513.981 43.184 514.344 42.3413 514.344 41.296C514.344 40.2293 513.981 39.376 513.256 38.736C512.552 38.0747 511.656 37.744 510.568 37.744C509.48 37.744 508.584 38.0747 507.88 38.736C507.176 39.376 506.824 40.2293 506.824 41.296Z" fill="black" fill-opacity="0.85"/>
<defs>
<clipPath id="clip0_124_935">
<rect width="35.9999" height="36" fill="white" transform="translate(183 27)"/>
</clipPath>
</defs>
</svg>
