<svg width="712" height="90" viewBox="0 0 712 90" fill="none" xmlns="http://www.w3.org/2000/svg">
<rect width="712" height="90" rx="20" fill="#03C75A"/>
<g clip-path="url(#clip0_122_279)">
<path d="M207.911 46.266L194.563 27H183.5V63H195.089V43.731L208.437 63H219.5V27H207.911V46.266Z" fill="white"/>
</g>
<path d="M250.052 44.176H244.708V40.784H250.052V32.496H253.988V59.216H250.052V44.176ZM259.78 60.528H255.748V32.016H259.78V60.528ZM248.548 52.784C247.737 53.0187 246.329 53.232 244.324 53.424C242.34 53.5947 240.505 53.68 238.82 53.68H236.548V34.64H240.772V50.16H241.284C243.716 50.16 245.999 49.9147 248.132 49.424C248.175 49.808 248.239 50.3733 248.324 51.12C248.409 51.8667 248.484 52.4213 248.548 52.784ZM286.828 60.528H282.604V32.016H286.828V60.528ZM263.916 44.144C263.916 41.0933 264.577 38.6187 265.9 36.72C267.244 34.8 269.068 33.84 271.372 33.84C273.697 33.84 275.532 34.8 276.876 36.72C278.22 38.6187 278.892 41.0933 278.892 44.144C278.892 47.152 278.22 49.6053 276.876 51.504C275.532 53.4027 273.697 54.352 271.372 54.352C269.089 54.352 267.276 53.4027 265.932 51.504C264.588 49.6053 263.916 47.152 263.916 44.144ZM274.924 44.144C274.924 42.032 274.593 40.4107 273.932 39.28C273.292 38.1493 272.438 37.584 271.372 37.584C270.369 37.584 269.548 38.16 268.908 39.312C268.268 40.4427 267.948 42.0533 267.948 44.144C267.948 46.2133 268.268 47.824 268.908 48.976C269.548 50.1067 270.369 50.672 271.372 50.672C272.438 50.672 273.292 50.1067 273.932 48.976C274.593 47.8453 274.924 46.2347 274.924 44.144ZM314.515 60.528H310.291V45.36H306.483V41.808H310.291V32.016H314.515V60.528ZM305.363 53.52H291.731V34.288H295.923V41.008H301.107V34.288H305.363V53.52ZM301.107 50.192V44.24H295.923V50.192H301.107ZM349.329 32.016V42.768H353.297V46.224H349.329V60.528H345.105V32.016H349.329ZM327.025 44.144C327.025 41.0933 327.697 38.6187 329.041 36.72C330.406 34.8 332.241 33.84 334.545 33.84C336.849 33.84 338.673 34.8 340.017 36.72C341.382 38.6187 342.065 41.0933 342.065 44.144C342.065 47.1307 341.382 49.584 340.017 51.504C338.673 53.4027 336.849 54.352 334.545 54.352C332.241 54.352 330.406 53.4027 329.041 51.504C327.697 49.6053 327.025 47.152 327.025 44.144ZM338.065 44.144C338.065 42.032 337.745 40.4107 337.105 39.28C336.465 38.1493 335.611 37.584 334.545 37.584C333.521 37.584 332.689 38.1493 332.049 39.28C331.43 40.4107 331.121 42.032 331.121 44.144C331.121 46.2133 331.441 47.824 332.081 48.976C332.721 50.1067 333.542 50.672 334.545 50.672C335.611 50.672 336.465 50.1067 337.105 48.976C337.745 47.8453 338.065 46.2347 338.065 44.144ZM378.296 60.528H374.072V32.016H378.296V60.528ZM355.384 44.144C355.384 41.0933 356.046 38.6187 357.368 36.72C358.712 34.8 360.536 33.84 362.84 33.84C365.166 33.84 367 34.8 368.344 36.72C369.688 38.6187 370.36 41.0933 370.36 44.144C370.36 47.152 369.688 49.6053 368.344 51.504C367 53.4027 365.166 54.352 362.84 54.352C360.558 54.352 358.744 53.4027 357.4 51.504C356.056 49.6053 355.384 47.152 355.384 44.144ZM366.392 44.144C366.392 42.032 366.062 40.4107 365.4 39.28C364.76 38.1493 363.907 37.584 362.84 37.584C361.838 37.584 361.016 38.16 360.376 39.312C359.736 40.4427 359.416 42.0533 359.416 44.144C359.416 46.2133 359.736 47.824 360.376 48.976C361.016 50.1067 361.838 50.672 362.84 50.672C363.907 50.672 364.76 50.1067 365.4 48.976C366.062 47.8453 366.392 46.2347 366.392 44.144ZM405.664 60.528H401.44V32.016H405.664V60.528ZM388.192 50.288C388.576 50.3093 389.162 50.32 389.952 50.32C394.218 50.32 397.429 50.0533 399.584 49.52C399.648 50.0533 399.797 51.2053 400.032 52.976C397.344 53.5947 393.514 53.904 388.544 53.904C388.01 53.904 387.232 53.8933 386.208 53.872C385.205 53.8507 384.448 53.84 383.936 53.84V34.576H396.928V37.904H388.192V50.288ZM433.287 49.52H424.967V53.68H435.751V57.008H409.991V53.68H420.775V49.52H413.223V39.792H428.327V37.04H413.191V33.648H432.551V43.184H417.447V46.16H433.287V49.52ZM469.381 49.52H461.061V53.68H471.845V57.008H446.085V53.68H456.869V49.52H449.317V39.792H464.421V37.04H449.285V33.648H468.645V43.184H453.541V46.16H469.381V49.52ZM499.533 56.56H473.773V53.232H499.533V56.56ZM496.141 34.768C496.226 41.424 495.853 47.1413 495.021 51.92L490.957 51.504C491.234 49.8613 491.479 47.6747 491.693 44.944C491.927 42.2133 492.013 39.952 491.949 38.16H476.461V34.768H496.141ZM525.14 52.688H520.852V32.016H525.14V52.688ZM525.716 59.824H505.716V50.576H509.972V56.528H525.716V59.824ZM502.196 41.296C502.196 39.2267 502.943 37.5413 504.436 36.24C505.951 34.9173 507.828 34.256 510.068 34.256C512.308 34.256 514.185 34.9173 515.7 36.24C517.215 37.5413 517.972 39.2267 517.972 41.296C517.972 43.344 517.215 45.0293 515.7 46.352C514.185 47.6533 512.308 48.304 510.068 48.304C507.828 48.304 505.951 47.6533 504.436 46.352C502.943 45.0293 502.196 43.344 502.196 41.296ZM506.324 41.296C506.324 42.3413 506.676 43.184 507.38 43.824C508.084 44.4427 508.98 44.752 510.068 44.752C511.156 44.752 512.052 44.4427 512.756 43.824C513.481 43.184 513.844 42.3413 513.844 41.296C513.844 40.2293 513.481 39.376 512.756 38.736C512.052 38.0747 511.156 37.744 510.068 37.744C508.98 37.744 508.084 38.0747 507.38 38.736C506.676 39.376 506.324 40.2293 506.324 41.296Z" fill="white"/>
<defs>
<clipPath id="clip0_122_279">
<rect width="36" height="36" fill="white" transform="translate(183.5 27)"/>
</clipPath>
</defs>
</svg>
