<svg width="20" height="18" viewBox="0 0 36 36" fill="none" xmlns="http://www.w3.org/2000/svg">
<path d="M18 13.5C16.8065 13.5 15.6619 13.9741 14.818 14.818C13.9741 15.6619 13.5 16.8065 13.5 18C13.5 19.1935 13.9741 20.3381 14.818 21.182C15.6619 22.0259 16.8065 22.5 18 22.5C19.1935 22.5 20.3381 22.0259 21.182 21.182C22.0259 20.3381 22.5 19.1935 22.5 18C22.5 16.8065 22.0259 15.6619 21.182 14.818C20.3381 13.9741 19.1935 13.5 18 13.5ZM18 25.5C16.0109 25.5 14.1032 24.7098 12.6967 23.3033C11.2902 21.8968 10.5 19.9891 10.5 18C10.5 16.0109 11.2902 14.1032 12.6967 12.6967C14.1032 11.2902 16.0109 10.5 18 10.5C19.9891 10.5 21.8968 11.2902 23.3033 12.6967C24.7098 14.1032 25.5 16.0109 25.5 18C25.5 19.9891 24.7098 21.8968 23.3033 23.3033C21.8968 24.7098 19.9891 25.5 18 25.5ZM18 6.75C10.5 6.75 4.095 11.415 1.5 18C4.095 24.585 10.5 29.25 18 29.25C25.5 29.25 31.905 24.585 34.5 18C31.905 11.415 25.5 6.75 18 6.75Z" fill="gray"/>
</svg>
