<svg width="26" height="26" viewBox="0 0 26 26" fill="none" xmlns="http://www.w3.org/2000/svg">
<path d="M16.7917 15.1667H15.9358L15.6325 14.8742C16.7309 13.6002 17.3346 11.9738 17.3333 10.2917C17.3333 8.89896 16.9204 7.53753 16.1466 6.37953C15.3729 5.22153 14.2731 4.31899 12.9864 3.78602C11.6997 3.25305 10.2839 3.1136 8.91791 3.38531C7.55196 3.65701 6.29725 4.32766 5.31246 5.31246C4.32766 6.29725 3.65701 7.55196 3.38531 8.91791C3.1136 10.2839 3.25305 11.6997 3.78602 12.9864C4.31899 14.2731 5.22153 15.3729 6.37953 16.1466C7.53753 16.9204 8.89896 17.3333 10.2917 17.3333C12.0358 17.3333 13.6392 16.6942 14.8742 15.6325L15.1667 15.9358V16.7917L20.5833 22.1975L22.1975 20.5833L16.7917 15.1667ZM10.2917 15.1667C7.59417 15.1667 5.41667 12.9892 5.41667 10.2917C5.41667 7.59417 7.59417 5.41667 10.2917 5.41667C12.9892 5.41667 15.1667 7.59417 15.1667 10.2917C15.1667 12.9892 12.9892 15.1667 10.2917 15.1667Z" fill="#777777"/>
</svg>
