<svg width="77" height="64" viewBox="0 0 77 64" fill="none" xmlns="http://www.w3.org/2000/svg">
<path fillRule="evenodd" clipRule="evenodd" d="M16.5067 25.8134C15.5236 25.4046 14.4181 25.4046 13.435 25.8134L11.5935 26.5792C7.48665 28.287 7.48664 34.1049 11.5935 35.8127L36.5802 46.2032C37.8091 46.7142 39.191 46.7142 40.4198 46.2032L65.4065 35.8127C69.5134 34.1049 69.5134 28.287 65.4065 26.5792L63.565 25.8134C62.5819 25.4046 61.4764 25.4046 60.4933 25.8134L40.4198 34.1608C39.191 34.6718 37.8091 34.6718 36.5802 34.1608L16.5067 25.8134Z" fill="#8DBBF7"/>
<path fillRule="evenodd" clipRule="evenodd" d="M16.5067 43.1245C15.5236 42.7157 14.4181 42.7157 13.435 43.1245L11.5935 43.8902C7.48665 45.5981 7.48664 51.4159 11.5935 53.1237L36.5802 63.5142C37.8091 64.0252 39.191 64.0252 40.4198 63.5142L65.4065 53.1237C69.5134 51.4159 69.5134 45.5981 65.4065 43.8902L63.565 43.1245C62.5819 42.7157 61.4764 42.7157 60.4933 43.1245L40.4198 51.4719C39.191 51.9829 37.8091 51.9829 36.5802 51.4719L16.5067 43.1245Z" fill="#0268ED"/>
<path d="M9.21658 11.7894L37.0061 0.601427C37.9647 0.215526 39.0353 0.215526 39.9939 0.601427L67.7834 11.7894C71.1249 13.1347 71.1249 17.8653 67.7834 19.2106L39.9939 30.3986C39.0353 30.7845 37.9647 30.7845 37.0061 30.3986L9.21659 19.2106C5.87508 17.8653 5.87507 13.1347 9.21658 11.7894Z" fill="#0268ED"/>
</svg>
