<svg width="512" height="512" viewBox="0 0 512 512" fill="none" xmlns="http://www.w3.org/2000/svg">
<path fill-rule="evenodd" clip-rule="evenodd" d="M71.5068 249.813C70.5237 249.405 69.4182 249.405 68.4351 249.813L66.5936 250.579C62.4867 252.287 62.4867 258.105 66.5936 259.813L91.5802 270.203C92.8091 270.714 94.191 270.714 95.4199 270.203L120.407 259.813C124.513 258.105 124.513 252.287 120.407 250.579L118.565 249.813C117.582 249.405 116.476 249.405 115.493 249.813L95.4199 258.161C94.191 258.672 92.8091 258.672 91.5802 258.161L71.5068 249.813Z" fill="#8DBBF7"/>
<path fill-rule="evenodd" clip-rule="evenodd" d="M71.5068 267.124C70.5237 266.716 69.4182 266.716 68.4351 267.124L66.5936 267.89C62.4867 269.598 62.4867 275.416 66.5936 277.124L91.5802 287.514C92.8091 288.025 94.191 288.025 95.4199 287.514L120.407 277.124C124.513 275.416 124.513 269.598 120.407 267.89L118.565 267.124C117.582 266.716 116.476 266.716 115.493 267.124L95.4199 275.472C94.191 275.983 92.8091 275.983 91.5802 275.472L71.5068 267.124Z" fill="#0268ED"/>
<path d="M64.2166 235.789L92.0061 224.601C92.9647 224.216 94.0353 224.216 94.9939 224.601L122.783 235.789C126.125 237.135 126.125 241.865 122.783 243.211L94.9939 254.399C94.0353 254.784 92.9647 254.784 92.0061 254.399L64.2166 243.211C60.8751 241.865 60.8751 237.135 64.2166 235.789Z" fill="#0268ED"/>
<path d="M179.902 282H169.409L150.508 249.734V282H140.698V232.986H151.191L170.093 265.286V232.986H179.902V282ZM199.251 273.045C199.615 273.159 199.98 273.239 200.344 273.284C200.709 273.307 201.074 273.318 201.438 273.318C202.35 273.318 203.227 273.193 204.07 272.942C204.913 272.692 205.699 272.339 206.428 271.883C207.18 271.404 207.841 270.835 208.411 270.174C209.003 269.49 209.482 268.738 209.846 267.918L216.682 274.788C215.816 276.019 214.814 277.124 213.674 278.104C212.558 279.083 211.339 279.915 210.017 280.599C208.718 281.282 207.34 281.795 205.881 282.137C204.446 282.501 202.965 282.684 201.438 282.684C198.863 282.684 196.436 282.205 194.158 281.248C191.902 280.291 189.92 278.958 188.211 277.249C186.524 275.54 185.191 273.512 184.212 271.165C183.232 268.795 182.742 266.198 182.742 263.372C182.742 260.478 183.232 257.835 184.212 255.442C185.191 253.05 186.524 251.01 188.211 249.324C189.92 247.638 191.902 246.328 194.158 245.394C196.436 244.459 198.863 243.992 201.438 243.992C202.965 243.992 204.457 244.174 205.916 244.539C207.374 244.904 208.753 245.428 210.051 246.111C211.373 246.795 212.603 247.638 213.743 248.641C214.882 249.62 215.885 250.726 216.751 251.956L199.251 273.045ZM204.036 253.802C203.603 253.642 203.17 253.54 202.737 253.494C202.327 253.449 201.894 253.426 201.438 253.426C200.162 253.426 198.954 253.665 197.815 254.144C196.699 254.599 195.719 255.26 194.876 256.126C194.055 256.992 193.406 258.04 192.927 259.271C192.449 260.478 192.21 261.845 192.21 263.372C192.21 263.714 192.221 264.101 192.244 264.534C192.289 264.967 192.346 265.411 192.415 265.867C192.506 266.3 192.608 266.722 192.722 267.132C192.836 267.542 192.984 267.907 193.167 268.226L204.036 253.802ZM264.878 268.772C264.878 270.687 264.514 272.498 263.785 274.207C263.055 275.893 262.053 277.363 260.777 278.616C259.524 279.869 258.042 280.861 256.333 281.59C254.647 282.319 252.836 282.684 250.899 282.684C249.167 282.684 247.504 282.387 245.909 281.795C244.314 281.18 242.867 280.291 241.568 279.129C240.292 280.291 238.856 281.18 237.261 281.795C235.689 282.387 234.025 282.684 232.271 282.684C230.334 282.684 228.523 282.319 226.836 281.59C225.15 280.861 223.669 279.869 222.393 278.616C221.14 277.363 220.149 275.893 219.419 274.207C218.69 272.498 218.326 270.687 218.326 268.772V245.462H227.657V268.772C227.657 269.41 227.771 270.014 227.998 270.584C228.249 271.131 228.579 271.621 228.99 272.054C229.423 272.464 229.912 272.794 230.459 273.045C231.029 273.273 231.633 273.387 232.271 273.387C232.909 273.387 233.513 273.273 234.082 273.045C234.652 272.794 235.153 272.464 235.586 272.054C236.019 271.621 236.35 271.131 236.578 270.584C236.828 270.014 236.954 269.41 236.954 268.772V245.462H246.25V268.772C246.25 269.41 246.376 270.014 246.626 270.584C246.877 271.131 247.207 271.621 247.618 272.054C248.051 272.464 248.54 272.794 249.087 273.045C249.657 273.273 250.261 273.387 250.899 273.387C251.537 273.387 252.141 273.273 252.71 273.045C253.28 272.794 253.77 272.464 254.18 272.054C254.613 271.621 254.955 271.131 255.205 270.584C255.456 270.014 255.581 269.41 255.581 268.772V245.462H264.878V268.772ZM320.973 282H286.656V232.986H296.466V272.19H320.973V282ZM335.912 273.045C336.276 273.159 336.641 273.239 337.006 273.284C337.37 273.307 337.735 273.318 338.099 273.318C339.011 273.318 339.888 273.193 340.731 272.942C341.574 272.692 342.36 272.339 343.09 271.883C343.842 271.404 344.502 270.835 345.072 270.174C345.665 269.49 346.143 268.738 346.508 267.918L353.344 274.788C352.478 276.019 351.475 277.124 350.336 278.104C349.219 279.083 348 279.915 346.679 280.599C345.38 281.282 344.001 281.795 342.543 282.137C341.107 282.501 339.626 282.684 338.099 282.684C335.525 282.684 333.098 282.205 330.819 281.248C328.563 280.291 326.581 278.958 324.872 277.249C323.186 275.54 321.853 273.512 320.873 271.165C319.893 268.795 319.403 266.198 319.403 263.372C319.403 260.478 319.893 257.835 320.873 255.442C321.853 253.05 323.186 251.01 324.872 249.324C326.581 247.638 328.563 246.328 330.819 245.394C333.098 244.459 335.525 243.992 338.099 243.992C339.626 243.992 341.119 244.174 342.577 244.539C344.035 244.904 345.414 245.428 346.713 246.111C348.034 246.795 349.265 247.638 350.404 248.641C351.543 249.62 352.546 250.726 353.412 251.956L335.912 273.045ZM340.697 253.802C340.264 253.642 339.831 253.54 339.398 253.494C338.988 253.449 338.555 253.426 338.099 253.426C336.823 253.426 335.616 253.665 334.476 254.144C333.36 254.599 332.38 255.26 331.537 256.126C330.717 256.992 330.067 258.04 329.589 259.271C329.11 260.478 328.871 261.845 328.871 263.372C328.871 263.714 328.882 264.101 328.905 264.534C328.951 264.967 329.008 265.411 329.076 265.867C329.167 266.3 329.27 266.722 329.384 267.132C329.498 267.542 329.646 267.907 329.828 268.226L340.697 253.802ZM390.5 282H388.244L384.621 276.976C383.732 277.773 382.786 278.525 381.784 279.231C380.804 279.915 379.767 280.519 378.673 281.043C377.58 281.544 376.452 281.943 375.29 282.239C374.15 282.535 372.988 282.684 371.803 282.684C369.228 282.684 366.802 282.251 364.523 281.385C362.267 280.519 360.285 279.266 358.576 277.625C356.89 275.962 355.557 273.934 354.577 271.541C353.597 269.148 353.107 266.425 353.107 263.372C353.107 260.524 353.597 257.915 354.577 255.545C355.557 253.152 356.89 251.102 358.576 249.393C360.285 247.684 362.267 246.362 364.523 245.428C366.802 244.471 369.228 243.992 371.803 243.992C372.988 243.992 374.162 244.14 375.324 244.437C376.486 244.733 377.614 245.143 378.708 245.667C379.801 246.191 380.838 246.806 381.818 247.513C382.821 248.219 383.755 248.982 384.621 249.803L388.244 245.462H390.5V282ZM381.1 263.372C381.1 262.096 380.85 260.866 380.348 259.681C379.87 258.473 379.209 257.413 378.366 256.502C377.523 255.568 376.532 254.827 375.392 254.28C374.276 253.711 373.079 253.426 371.803 253.426C370.527 253.426 369.32 253.642 368.18 254.075C367.064 254.508 366.084 255.146 365.241 255.989C364.421 256.832 363.771 257.881 363.293 259.134C362.814 260.364 362.575 261.777 362.575 263.372C362.575 264.967 362.814 266.391 363.293 267.645C363.771 268.875 364.421 269.912 365.241 270.755C366.084 271.598 367.064 272.236 368.18 272.669C369.32 273.102 370.527 273.318 371.803 273.318C373.079 273.318 374.276 273.045 375.392 272.498C376.532 271.928 377.523 271.188 378.366 270.276C379.209 269.342 379.87 268.283 380.348 267.098C380.85 265.89 381.1 264.648 381.1 263.372ZM404.174 282H394.843V245.394H397.099L400.175 249.734C401.679 248.367 403.388 247.319 405.302 246.59C407.216 245.838 409.199 245.462 411.249 245.462H419.487V254.759H411.249C410.27 254.759 409.347 254.941 408.481 255.306C407.615 255.67 406.863 256.172 406.225 256.81C405.587 257.448 405.086 258.2 404.721 259.065C404.357 259.931 404.174 260.854 404.174 261.834V282ZM430.359 282H421.028V245.394H423.283L426.36 248.948C427.863 247.581 429.561 246.533 431.452 245.804C433.366 245.052 435.36 244.676 437.434 244.676C439.667 244.676 441.775 245.109 443.757 245.975C445.739 246.818 447.471 247.991 448.952 249.495C450.433 250.976 451.596 252.719 452.439 254.725C453.305 256.707 453.737 258.826 453.737 261.082V282H444.406V261.082C444.406 260.125 444.224 259.225 443.86 258.382C443.495 257.516 442.994 256.764 442.356 256.126C441.718 255.488 440.977 254.987 440.134 254.622C439.291 254.257 438.391 254.075 437.434 254.075C436.454 254.075 435.531 254.257 434.665 254.622C433.799 254.987 433.047 255.488 432.409 256.126C431.771 256.764 431.27 257.516 430.905 258.382C430.541 259.225 430.359 260.125 430.359 261.082V282Z" fill="black" fill-opacity="0.71"/>
</svg>
